Coordinates
version=1
nRows=12
nColumns=24
inDegrees=yes

Units are S.I. units (second, meters, Newtons, ...)
Angles are in degrees.

endheader
time	pelvis_tilt	pelvis_list	pelvis_rotation	pelvis_tx	pelvis_ty	pelvis_tz	hip_flexion_r	hip_adduction_r	hip_rotation_r	knee_angle_r	ankle_angle_r	subtalar_angle_r	mtp_angle_r	hip_flexion_l	hip_adduction_l	hip_rotation_l	knee_angle_l	ankle_angle_l	subtalar_angle_l	mtp_angle_l	lumbar_extension	lumbar_bending	lumbar_rotation
      0.62000000	      2.12927943	     -0.09881946	     -0.09938142	      0.20654573	      0.97798167	      0.15233390	     21.68483261	      0.58030080	    -11.79022599	    -17.18866726	     -0.80738923	     -2.67078712	     22.25324396	    -11.62705746	     -3.12403154	    -18.67090730	    -32.93212115	     -1.27550811	     15.78027681	     84.88471735	    -10.59456787	      2.03637877	    -10.34233067
      0.62400000	      2.08203838	     -0.25506309	     -0.10164637	      0.21210192	      0.97842145	      0.15278605	     21.52971233	      0.76767260	    -11.75932049	    -17.43401789	     -0.72416624	     -2.72725913	     21.92895008	    -10.93492813	     -3.57737926	    -18.59039461	    -34.31348155	     -2.20991819	     15.31021711	     84.58618818	    -10.54628510	      2.26121601	    -10.12361090
      0.62800000	      2.03060889	     -0.41202200	     -0.10407277	      0.21762597	      0.97886066	      0.15323092	     21.36503681	      0.95697590	    -11.73899547	    -17.65448210	     -0.62019050	     -2.76753910	     21.60205874	    -10.21261206	     -4.03117231	    -18.50051503	    -35.71062481	     -3.10900806	     14.83103524	     83.91901029	    -10.49571469	      2.48442320	     -9.89669516
      0.63200000	      1.97506690	     -0.56932489	     -0.10683597	      0.22311783	      0.97929898	      0.15366763	     21.19081485	      1.14784334	    -11.72792863	    -17.85014542	     -0.49649668	     -2.79213283	     21.27246472	     -9.46212149	     -4.48390020	    -18.40156039	    -37.11934073	     -3.96283531	     14.34378230	     82.88946096	    -10.44289931	      2.70557865	     -9.66189971
      0.63600000	      1.91558757	     -0.72647462	     -0.11015012	      0.22857780	      0.97973662	      0.15409542	     21.00696613	      1.33977246	    -11.72478514	    -18.02112580	     -0.35431414	     -2.80151470	     20.94008381	     -8.68563838	     -4.93391753	    -18.29393962	    -38.53533032	     -4.76168649	     13.84947019	     81.50892208	    -10.38796945	      2.92413569	     -9.41958434
      0.64000000	      1.85244880	     -0.88285034	     -0.11425796	      0.23400654	      0.98017420	      0.15451363	     20.81333050	      1.53212447	    -11.72824184	    -18.16759764	     -0.19502330	     -2.79613463	     20.60485639	     -7.88548080	     -5.37946451	    -18.17816327	    -39.95425181	     -5.49634177	     13.34906305	     79.79378615	    -10.33114634	      3.13942295	     -9.17015113
      0.64400000	      1.78603178	     -1.03771638	     -0.11941856	      0.23940501	      0.98061267	      0.15492172	     20.60967960	      1.72413015	    -11.73700911	    -18.28981276	     -0.02011448	     -2.77642760	     20.26675011	     -7.06407028	     -5.81869217	    -18.05482901	    -41.37176272	     -6.15833515	     12.84347170	     77.76525678	    -10.27274259	      3.35065028	     -8.91404223
      0.64800000	      1.71681833	     -1.19023766	     -0.12589351	      0.24477437	      0.98105334	      0.15531923	     20.39572986	      1.91490263	    -11.74985026	    -18.38811638	      0.16884976	     -2.74282487	     19.92576164	     -6.22390115	     -6.24969168	    -17.92460867	    -42.78355661	     -6.74019869	     12.33355235	     75.44904490	    -10.21316031	      3.55692020	     -8.65173694
      0.65200000	      1.64538425	     -1.33950075	     -0.13393203	      0.25011593	      0.98149782	      0.15570579	     20.17115572	      2.10345626	    -11.76559843	    -18.46295678	      0.37026790	     -2.69576602	     19.58191746	     -5.36751310	     -6.67052714	    -17.78823726	    -44.18539394	     -7.23568019	     11.82011101	     72.87496436	    -10.15288642	      3.75724432	     -8.38374762
      0.65600000	      1.57238926	     -1.48453881	     -0.14375620	      0.25543108	      0.98194799	      0.15608112	     19.93560216	      2.28873043	    -11.78317110	    -18.51488807	      0.58252813	     -2.63571079	     19.23527394	     -4.49746691	     -7.07927118	    -17.64650366	    -45.57312663	     -7.63992471	     11.30391418	     70.07643396	    -10.09248549	      3.95056416	     -8.11061493
      0.66000000	      1.49856431	     -1.62435838	     -0.15554745	      0.26072122	      0.98240586	      0.15644505	     19.68869582	      2.46961679	    -11.80158182	    -18.54456606	      0.80403223	     -2.56315003	     18.88591653	     -3.61632343	     -7.47404291	    -17.50024244	    -46.94271666	     -7.94961207	     10.78570621	     67.08989567	    -10.03259000	      4.13577532	     -7.83290195
      0.66400000	      1.42469733	     -1.75796612	     -0.16943573	      0.26598765	      0.98287342	      0.15679756	     19.43005431	      2.64498879	    -11.81994936	    -18.55273773	      1.03321472	     -2.47861488	     18.53395839	     -2.72662472	     -7.85304705	    -17.35032619	    -48.29024916	     -8.16304489	     10.26623292	     63.95416143	     -9.97388851	      4.31175402	     -7.55118781
